<svg width="36" height="37" viewBox="0 0 36 37" fill="none" xmlns="http://www.w3.org/2000/svg">
<rect y="0.875" width="36" height="36" rx="18" fill="black" fill-opacity="0.05"/>
<g clip-path="url(#clip0_2402_571)">
<path d="M13.5 18.875C13.5 19.705 12.83 20.375 12 20.375C11.17 20.375 10.5 19.705 10.5 18.875C10.5 18.045 11.17 17.375 12 17.375C12.83 17.375 13.5 18.045 13.5 18.875ZM18 17.375C17.17 17.375 16.5 18.045 16.5 18.875C16.5 19.705 17.17 20.375 18 20.375C18.83 20.375 19.5 19.705 19.5 18.875C19.5 18.045 18.83 17.375 18 17.375ZM24 17.375C23.17 17.375 22.5 18.045 22.5 18.875C22.5 19.705 23.17 20.375 24 20.375C24.83 20.375 25.5 19.705 25.5 18.875C25.5 18.045 24.83 17.375 24 17.375Z" fill="#0F0F0F"/>
</g>
<defs>
<clipPath id="clip0_2402_571">
<rect width="24" height="24" fill="white" transform="translate(6 6.875)"/>
</clipPath>
</defs>
</svg>
