<svg width="24" height="24" viewBox="0 0 24 24" fill="none" xmlns="http://www.w3.org/2000/svg">
<g clip-path="url(#clip0_2402_145)">
<path d="M14.7199 17.84C14.3999 18.11 13.8899 18.37 13.4899 18.5C12.1499 18.83 11.0799 18.16 10.8699 18.04C10.6599 17.93 10.0899 17.66 10.0899 17.66C10.0899 17.66 10.4399 17.55 10.4999 17.53C11.8399 16.99 12.3899 16.29 12.5899 15.42C12.7899 14.58 12.4299 13.86 12.2799 13.03C12.1599 12.34 12.1699 11.75 12.3999 11.13C12.4199 11.08 12.5199 10.7 12.5199 10.7C12.5199 10.7 12.6299 11.05 12.6499 11.11C13.3599 12.62 15.3699 13.29 15.7199 14.95C15.7499 15.1 15.7699 15.25 15.7699 15.41C15.7999 16.3 15.3999 17.26 14.7199 17.84ZM12.3999 4.34C12.2799 4.42 12.1799 4.49 12.0899 4.56C9.09995 6.87 9.17995 10.49 9.77995 13.11L9.78995 13.14L9.79995 13.17C9.85995 13.52 9.74995 13.87 9.51995 14.13C9.27995 14.39 8.93995 14.54 8.56995 14.54C8.12995 14.54 7.71995 14.34 7.34995 13.94C6.67995 13.21 6.17995 12.37 5.84995 11.48C5.48995 12.25 5.09995 13.46 5.17995 14.67C5.21995 15.18 5.29995 15.67 5.42995 16.1C5.60995 16.7 5.85995 17.26 6.17995 17.75C7.22995 19.41 9.05995 20.57 10.9599 20.8C11.3799 20.85 11.8099 20.88 12.2199 20.88C13.5599 20.88 15.4699 20.61 16.9599 19.31C18.7299 17.75 19.3099 15.32 18.3999 13.25C18.3599 13.15 18.3399 13.11 18.3099 13.06L18.2699 12.98C18.0599 12.56 17.7999 12.17 17.5199 11.84C17.2799 11.54 17.0399 11.28 16.7299 11.01C16.4299 10.74 16.0899 10.5 15.7299 10.24C15.2699 9.91 14.7999 9.57 14.3499 9.15C12.9799 7.83 12.2999 6.11 12.3999 4.34ZM14.4099 2C14.4099 2 14.2099 2.2 13.8499 2.99C13.1899 4.91 13.6999 6.94 15.1899 8.38C15.9199 9.07 16.7999 9.55 17.5499 10.22C17.8699 10.51 18.1699 10.81 18.4399 11.15C18.7999 11.57 19.0999 12.04 19.3499 12.53C19.3999 12.63 19.4499 12.73 19.4899 12.83C20.6099 15.38 19.8499 18.3 17.7599 20.14C16.2299 21.47 14.2199 22 12.2199 22C11.7499 22 11.2699 21.97 10.8099 21.91C8.51995 21.63 6.38995 20.25 5.17995 18.34C4.78995 17.74 4.49995 17.08 4.29995 16.41C4.13995 15.87 4.04995 15.31 4.00995 14.74C3.88995 12.86 4.67995 11.11 5.08995 10.43C5.49995 9.74 6.63995 8.25 6.63995 8.25C6.63995 8.25 6.63995 8.28 6.62995 8.34C6.40995 10.11 6.99995 11.88 8.21995 13.22C8.36995 13.39 8.48995 13.44 8.55995 13.44C8.61995 13.44 8.64995 13.4 8.63995 13.35C7.78995 9.59 8.36995 6 11.3499 3.7C11.9399 3.24 12.8599 2.76 13.3299 2.52C13.7999 2.28 14.4099 2 14.4099 2Z" fill="#030303"/>
</g>
<defs>
<clipPath id="clip0_2402_145">
<rect width="24" height="24" fill="white"/>
</clipPath>
</defs>
</svg>
