<svg width="25" height="25" viewBox="0 0 25 25" fill="none" xmlns="http://www.w3.org/2000/svg">
<g clip-path="url(#clip0_2402_553)">
<path d="M17.2095 4.875H16.2095H6.77954C5.70954 4.875 4.79954 5.545 4.58954 6.485L3.24954 12.485C2.97954 13.725 4.02954 14.875 5.43954 14.875H9.66954L8.14954 19.815C7.82954 20.845 8.66954 21.875 9.82954 21.875C10.4095 21.875 10.9695 21.635 11.3495 21.225L17.2095 14.875H21.2095V4.875H17.2095ZM10.6095 20.545C10.4195 20.755 10.1295 20.875 9.82954 20.875C9.56954 20.875 9.32954 20.765 9.19954 20.575C9.12954 20.475 9.04954 20.315 9.10954 20.105L10.6295 15.165L11.0295 13.875H9.66954H5.43954C5.02954 13.875 4.63954 13.705 4.40954 13.415C4.28954 13.265 4.15954 13.015 4.22954 12.695L5.56954 6.695C5.66954 6.225 6.17954 5.875 6.77954 5.875H16.2095V14.485L10.6095 20.545ZM20.2095 13.875H17.2095V5.875H20.2095V13.875Z" fill="#0F0F0F"/>
</g>
<defs>
<clipPath id="clip0_2402_553">
<rect width="24" height="24" fill="white" transform="translate(0.209473 0.875)"/>
</clipPath>
</defs>
</svg>
