<svg width="25" height="25" viewBox="0 0 25 25" fill="none" xmlns="http://www.w3.org/2000/svg">
<g clip-path="url(#clip0_2402_545)">
<path d="M18.9795 11.875H14.7495L16.2695 6.935C16.5895 5.905 15.7495 4.875 14.5895 4.875C14.0095 4.875 13.4495 5.115 13.0695 5.525L7.20947 11.875H3.20947V21.875H7.20947H8.20947H17.6395C18.6995 21.875 19.6195 21.205 19.8295 20.265L21.1695 14.265C21.4395 13.025 20.3895 11.875 18.9795 11.875ZM7.20947 20.875H4.20947V12.875H7.20947V20.875ZM20.1895 14.045L18.8495 20.045C18.7495 20.525 18.2395 20.875 17.6395 20.875H8.20947V12.265L13.8095 6.205C13.9995 5.995 14.2895 5.875 14.5895 5.875C14.8495 5.875 15.0895 5.985 15.2195 6.175C15.2895 6.275 15.3695 6.435 15.3095 6.645L13.7895 11.585L13.3895 12.875H14.7395H18.9695C19.3795 12.875 19.7695 13.045 19.9995 13.335C20.1295 13.485 20.2595 13.735 20.1895 14.045Z" fill="#0F0F0F"/>
</g>
<defs>
<clipPath id="clip0_2402_545">
<rect width="24" height="24" fill="white" transform="translate(0.209473 0.875)"/>
</clipPath>
</defs>
</svg>
